<svg xmlns="http://www.w3.org/2000/svg" viewBox="0 0 900 1120" width="900" height="1120" preserveAspectRatio="xMidYMid slice">
  <defs>
    <linearGradient id="bg" x1="0" y1="0" x2="0.15" y2="1">
      <stop offset="0" stop-color="#F7F3EC"/>
      <stop offset="1" stop-color="#E8DED0"/>
    </linearGradient>
    <radialGradient id="glow" cx="0.5" cy="0.2" r="0.65">
      <stop offset="0" stop-color="#F7F3EC" stop-opacity="0.5"/>
      <stop offset="1" stop-color="#F7F3EC" stop-opacity="0"/>
    </radialGradient>
    <radialGradient id="shadow" cx="0.5" cy="0.5" r="0.5">
      <stop offset="0" stop-color="#000000" stop-opacity="0.28"/>
      <stop offset="1" stop-color="#000000" stop-opacity="0"/>
    </radialGradient>
    <linearGradient id="wood" x1="0" y1="0" x2="1" y2="0">
      <stop offset="0" stop-color="#4A3023"/>
      <stop offset="1" stop-color="#2B1B14"/>
    </linearGradient>
    <filter id="grain" x="0" y="0" width="100%" height="100%">
      <feTurbulence type="fractalNoise" baseFrequency="0.85" numOctaves="2" seed="17" stitchTiles="stitch" result="noise"/>
      <feColorMatrix in="noise" type="matrix" values="0 0 0 0 0  0 0 0 0 0  0 0 0 0 0  0 0 0 0.05 0"/>
    </filter>
  </defs>
  <rect width="900" height="1120" fill="url(#bg)"/>
  <rect width="900" height="1120" fill="url(#glow)"/>
  <rect x="0" y="784.0" width="900" height="336.0" fill="#2B1B14" opacity="0.5"/>
  <g>
    <rect x="72.0" y="89.60000000000001" width="216.0" height="448.0" rx="4" fill="#F7F3EC" opacity="0.28"/>
    <rect x="72.0" y="89.60000000000001" width="216.0" height="448.0" rx="4" fill="none" stroke="#D9BD8C" stroke-width="3" opacity="0.7"/>
    <line x1="180.0" y1="89.60000000000001" x2="180.0" y2="537.6" stroke="#D9BD8C" stroke-width="2" opacity="0.55"/>
    <line x1="72.0" y1="313.6" x2="288.0" y2="313.6" stroke="#D9BD8C" stroke-width="2" opacity="0.55"/>
  </g>
  <g opacity="0.35">
    <ellipse cx="504.00000000000006" cy="963.1999999999999" rx="306.0" ry="100.8" fill="#6B4A34"/>
    <ellipse cx="504.00000000000006" cy="963.1999999999999" rx="292.0" ry="92.8" fill="none" stroke="#D9BD8C" stroke-width="2" opacity="0.5"/>
  </g>
  <line x1="378.0" y1="0" x2="378.0" y2="313.6" stroke="#B9935A" stroke-width="3" opacity="0.7"/>
  <path d="M 352.0 313.6 Q 378.0 380.8 404.0 313.6 L 398.0 268.8 Q 378.0 302.40000000000003 358.0 268.8 Z" fill="#4A3023"/>
  <line x1="522.0" y1="0" x2="522.0" y2="313.6" stroke="#B9935A" stroke-width="3" opacity="0.7"/>
  <path d="M 496.0 313.6 Q 522.0 380.8 548.0 313.6 L 542.0 268.8 Q 522.0 302.40000000000003 502.0 268.8 Z" fill="#4A3023"/>
  <line x1="666.0" y1="0" x2="666.0" y2="313.6" stroke="#B9935A" stroke-width="3" opacity="0.7"/>
  <path d="M 640.0 313.6 Q 666.0 380.8 692.0 313.6 L 686.0 268.8 Q 666.0 302.40000000000003 646.0 268.8 Z" fill="#4A3023"/>
  <rect x="288.0" y="744.0" width="360.0" height="22" rx="6" fill="url(#wood)"/>
  <rect x="318.0" y="766.0" width="12" height="60" fill="#B9935A"/>
  <rect x="606.0" y="766.0" width="12" height="60" fill="#B9935A"/>
  <rect x="254.0" y="780.0" width="32" height="46" rx="8" fill="#2B1B14" opacity="0.75"/>
  <rect x="254.0" y="738.0" width="32" height="46" rx="10" fill="#4A3023"/>
  <rect x="362.0" y="780.0" width="32" height="46" rx="8" fill="#2B1B14" opacity="0.75"/>
  <rect x="362.0" y="738.0" width="32" height="46" rx="10" fill="#4A3023"/>
  <rect x="542.0" y="780.0" width="32" height="46" rx="8" fill="#2B1B14" opacity="0.75"/>
  <rect x="542.0" y="738.0" width="32" height="46" rx="10" fill="#4A3023"/>
  <rect x="650.0" y="780.0" width="32" height="46" rx="8" fill="#2B1B14" opacity="0.75"/>
  <rect x="650.0" y="738.0" width="32" height="46" rx="10" fill="#4A3023"/>
  <rect width="900" height="1120" filter="url(#grain)"/>
</svg>