<svg xmlns="http://www.w3.org/2000/svg" viewBox="0 0 1100 1360" width="1100" height="1360" preserveAspectRatio="xMidYMid slice">
  <defs>
    <linearGradient id="bg" x1="0" y1="0" x2="0.15" y2="1">
      <stop offset="0" stop-color="#F7F3EC"/>
      <stop offset="1" stop-color="#F7F3EC"/>
    </linearGradient>
    <radialGradient id="glow" cx="0.78" cy="0.12" r="0.65">
      <stop offset="0" stop-color="#F7F3EC" stop-opacity="0.5"/>
      <stop offset="1" stop-color="#F7F3EC" stop-opacity="0"/>
    </radialGradient>
    <radialGradient id="shadow" cx="0.5" cy="0.5" r="0.5">
      <stop offset="0" stop-color="#000000" stop-opacity="0.28"/>
      <stop offset="1" stop-color="#000000" stop-opacity="0"/>
    </radialGradient>
    <linearGradient id="wood" x1="0" y1="0" x2="1" y2="0">
      <stop offset="0" stop-color="#4A3023"/>
      <stop offset="1" stop-color="#2B1B14"/>
    </linearGradient>
    <filter id="grain" x="0" y="0" width="100%" height="100%">
      <feTurbulence type="fractalNoise" baseFrequency="0.85" numOctaves="2" seed="11" stitchTiles="stitch" result="noise"/>
      <feColorMatrix in="noise" type="matrix" values="0 0 0 0 0  0 0 0 0 0  0 0 0 0 0  0 0 0 0.05 0"/>
    </filter>
  </defs>
  <rect width="1100" height="1360" fill="url(#bg)"/>
  <rect width="1100" height="1360" fill="url(#glow)"/>
  <rect x="0" y="979.1999999999999" width="1100" height="380.80000000000007" fill="#2B1B14" opacity="0.55"/>
  <g>
    <rect x="682.0" y="108.8" width="330.0" height="571.1999999999999" rx="4" fill="#F7F3EC" opacity="0.28"/>
    <rect x="682.0" y="108.8" width="330.0" height="571.1999999999999" rx="4" fill="none" stroke="#D9BD8C" stroke-width="3" opacity="0.7"/>
    <line x1="847.0" y1="108.8" x2="847.0" y2="679.9999999999999" stroke="#D9BD8C" stroke-width="2" opacity="0.55"/>
    <line x1="682.0" y1="394.4" x2="1012.0" y2="394.4" stroke="#D9BD8C" stroke-width="2" opacity="0.55"/>
  </g>
  <g opacity="0.4">
    <ellipse cx="462.0" cy="1169.6" rx="396.0" ry="122.39999999999999" fill="#6B4A34"/>
    <ellipse cx="462.0" cy="1169.6" rx="382.0" ry="114.39999999999999" fill="none" stroke="#D9BD8C" stroke-width="2" opacity="0.5"/>
  </g>
  <g transform="translate(396.0,949.1999999999999) scale(1.2222222222222223)">
  <ellipse cx="0" cy="112" rx="235" ry="26" fill="url(#shadow)"/>
  <rect x="-220" y="60" width="440" height="30" rx="10" fill="#2B1B14" opacity="0.55"/>
  <rect x="-210" y="-30" width="420" height="110" rx="34" fill="#4A3023"/>
  <rect x="-230" y="-96" width="180" height="90" rx="30" fill="#2B1B14"/>
  <rect x="-90" y="-96" width="180" height="90" rx="30" fill="#2B1B14"/>
  <rect x="50" y="-96" width="180" height="90" rx="30" fill="#2B1B14"/>
  <line x1="-70" y1="-22" x2="-70" y2="58" stroke="#2B1B14" stroke-width="2" opacity="0.25"/>
  <line x1="70" y1="-22" x2="70" y2="58" stroke="#2B1B14" stroke-width="2" opacity="0.25"/>
  <circle cx="-232" cy="10" r="62" fill="#4A3023"/>
  <circle cx="232" cy="10" r="62" fill="#4A3023"/>
  <rect x="-196" y="88" width="12" height="34" rx="3" fill="#B9935A"/>
  <rect x="-66" y="88" width="12" height="34" rx="3" fill="#B9935A"/>
  <rect x="54" y="88" width="12" height="34" rx="3" fill="#B9935A"/>
  <rect x="184" y="88" width="12" height="34" rx="3" fill="#B9935A"/>
  </g>
  <g transform="translate(682.0,909.1999999999999) scale(0.6)">
    <ellipse cx="0" cy="0" rx="48" ry="12" fill="#4A3023"/>
    <line x1="-34" y1="8" x2="-34" y2="60" stroke="#B9935A" stroke-width="5"/>
    <line x1="34" y1="8" x2="34" y2="60" stroke="#B9935A" stroke-width="5"/>
  </g>
  <g transform="translate(946.0,989.1999999999999) scale(0.9)">
    <path d="M -10 60 L 10 60 L 6 0 L -6 0 Z" fill="#D9BD8C" opacity="0.85"/>
    <path d="M 0 0 C -34 -10 -46 -46 -30 -78 C -8 -60 -4 -30 0 0 Z" fill="#4A3023"/>
    <path d="M 0 0 C 30 -14 40 -50 26 -80 C 4 -62 2 -30 0 0 Z" fill="#6B4A34"/>
    <path d="M 0 0 C -6 -30 4 -56 0 -84 C -16 -60 -14 -32 0 0 Z" fill="#4A3023" opacity="0.9"/>
  </g>
  <g>
    <rect x="66.0" y="163.2" width="154.00000000000003" height="299.2" fill="#E8DED0" stroke="#B9935A" stroke-width="3"/>
    <rect x="76.0" y="173.2" width="134.00000000000003" height="279.2" fill="#2B1B14" opacity="0.12"/>
  </g>
  <rect width="1100" height="1360" filter="url(#grain)"/>
</svg>