<svg xmlns="http://www.w3.org/2000/svg" viewBox="0 0 800 800" width="800" height="800" preserveAspectRatio="xMidYMid slice">
  <defs>
    <linearGradient id="bg" x1="0" y1="0" x2="0.15" y2="1">
      <stop offset="0" stop-color="#4A3023"/>
      <stop offset="1" stop-color="#2B1B14"/>
    </linearGradient>
    <radialGradient id="glow" cx="0.78" cy="0.12" r="0.65">
      <stop offset="0" stop-color="#F7F3EC" stop-opacity="0.2"/>
      <stop offset="1" stop-color="#F7F3EC" stop-opacity="0"/>
    </radialGradient>
    <radialGradient id="shadow" cx="0.5" cy="0.5" r="0.5">
      <stop offset="0" stop-color="#000000" stop-opacity="0.28"/>
      <stop offset="1" stop-color="#000000" stop-opacity="0"/>
    </radialGradient>
    <linearGradient id="wood" x1="0" y1="0" x2="1" y2="0">
      <stop offset="0" stop-color="#4A3023"/>
      <stop offset="1" stop-color="#2B1B14"/>
    </linearGradient>
    <filter id="grain" x="0" y="0" width="100%" height="100%">
      <feTurbulence type="fractalNoise" baseFrequency="0.85" numOctaves="2" seed="67" stitchTiles="stitch" result="noise"/>
      <feColorMatrix in="noise" type="matrix" values="0 0 0 0 0  0 0 0 0 0  0 0 0 0 0  0 0 0 0.05 0"/>
    </filter>
  </defs>
  <rect width="800" height="800" fill="url(#bg)"/>
  <rect width="800" height="800" fill="url(#glow)"/>
  <rect x="0" y="0" width="800" height="26" fill="#4A3023" opacity="0.8"/>
  <path d="M0 13.0 Q 400.0 5.0 800 13.0" stroke="#2B1B14" stroke-width="1.5" fill="none" opacity="0.25"/>
  <rect x="0" y="26" width="800" height="34" fill="#5c4230" opacity="0.8"/>
  <path d="M0 43.0 Q 400.0 51.0 800 43.0" stroke="#2B1B14" stroke-width="1.5" fill="none" opacity="0.25"/>
  <rect x="0" y="60" width="800" height="42" fill="#2B1B14" opacity="0.8"/>
  <path d="M0 81.0 Q 400.0 73.0 800 81.0" stroke="#2B1B14" stroke-width="1.5" fill="none" opacity="0.25"/>
  <rect x="0" y="102" width="800" height="26" fill="#6B4A34" opacity="0.8"/>
  <path d="M0 115.0 Q 400.0 123.0 800 115.0" stroke="#2B1B14" stroke-width="1.5" fill="none" opacity="0.25"/>
  <rect x="0" y="128" width="800" height="34" fill="#4A3023" opacity="0.8"/>
  <path d="M0 145.0 Q 400.0 137.0 800 145.0" stroke="#2B1B14" stroke-width="1.5" fill="none" opacity="0.25"/>
  <rect x="0" y="162" width="800" height="42" fill="#5c4230" opacity="0.8"/>
  <path d="M0 183.0 Q 400.0 191.0 800 183.0" stroke="#2B1B14" stroke-width="1.5" fill="none" opacity="0.25"/>
  <rect x="0" y="204" width="800" height="26" fill="#2B1B14" opacity="0.8"/>
  <path d="M0 217.0 Q 400.0 209.0 800 217.0" stroke="#2B1B14" stroke-width="1.5" fill="none" opacity="0.25"/>
  <rect x="0" y="230" width="800" height="34" fill="#6B4A34" opacity="0.8"/>
  <path d="M0 247.0 Q 400.0 255.0 800 247.0" stroke="#2B1B14" stroke-width="1.5" fill="none" opacity="0.25"/>
  <rect x="0" y="264" width="800" height="42" fill="#4A3023" opacity="0.8"/>
  <path d="M0 285.0 Q 400.0 277.0 800 285.0" stroke="#2B1B14" stroke-width="1.5" fill="none" opacity="0.25"/>
  <rect x="0" y="306" width="800" height="26" fill="#5c4230" opacity="0.8"/>
  <path d="M0 319.0 Q 400.0 327.0 800 319.0" stroke="#2B1B14" stroke-width="1.5" fill="none" opacity="0.25"/>
  <rect x="0" y="332" width="800" height="34" fill="#2B1B14" opacity="0.8"/>
  <path d="M0 349.0 Q 400.0 341.0 800 349.0" stroke="#2B1B14" stroke-width="1.5" fill="none" opacity="0.25"/>
  <rect x="0" y="366" width="800" height="42" fill="#6B4A34" opacity="0.8"/>
  <path d="M0 387.0 Q 400.0 395.0 800 387.0" stroke="#2B1B14" stroke-width="1.5" fill="none" opacity="0.25"/>
  <rect x="0" y="408" width="800" height="26" fill="#4A3023" opacity="0.8"/>
  <path d="M0 421.0 Q 400.0 413.0 800 421.0" stroke="#2B1B14" stroke-width="1.5" fill="none" opacity="0.25"/>
  <rect x="0" y="434" width="800" height="34" fill="#5c4230" opacity="0.8"/>
  <path d="M0 451.0 Q 400.0 459.0 800 451.0" stroke="#2B1B14" stroke-width="1.5" fill="none" opacity="0.25"/>
  <rect x="0" y="468" width="800" height="42" fill="#2B1B14" opacity="0.8"/>
  <path d="M0 489.0 Q 400.0 481.0 800 489.0" stroke="#2B1B14" stroke-width="1.5" fill="none" opacity="0.25"/>
  <rect x="0" y="510" width="800" height="26" fill="#6B4A34" opacity="0.8"/>
  <path d="M0 523.0 Q 400.0 531.0 800 523.0" stroke="#2B1B14" stroke-width="1.5" fill="none" opacity="0.25"/>
  <rect x="0" y="536" width="800" height="34" fill="#4A3023" opacity="0.8"/>
  <path d="M0 553.0 Q 400.0 545.0 800 553.0" stroke="#2B1B14" stroke-width="1.5" fill="none" opacity="0.25"/>
  <rect x="0" y="570" width="800" height="42" fill="#5c4230" opacity="0.8"/>
  <path d="M0 591.0 Q 400.0 599.0 800 591.0" stroke="#2B1B14" stroke-width="1.5" fill="none" opacity="0.25"/>
  <rect x="0" y="612" width="800" height="26" fill="#2B1B14" opacity="0.8"/>
  <path d="M0 625.0 Q 400.0 617.0 800 625.0" stroke="#2B1B14" stroke-width="1.5" fill="none" opacity="0.25"/>
  <rect x="0" y="638" width="800" height="34" fill="#6B4A34" opacity="0.8"/>
  <path d="M0 655.0 Q 400.0 663.0 800 655.0" stroke="#2B1B14" stroke-width="1.5" fill="none" opacity="0.25"/>
  <rect x="0" y="672" width="800" height="42" fill="#4A3023" opacity="0.8"/>
  <path d="M0 693.0 Q 400.0 685.0 800 693.0" stroke="#2B1B14" stroke-width="1.5" fill="none" opacity="0.25"/>
  <rect x="0" y="714" width="800" height="26" fill="#5c4230" opacity="0.8"/>
  <path d="M0 727.0 Q 400.0 735.0 800 727.0" stroke="#2B1B14" stroke-width="1.5" fill="none" opacity="0.25"/>
  <rect x="0" y="740" width="800" height="34" fill="#2B1B14" opacity="0.8"/>
  <path d="M0 757.0 Q 400.0 749.0 800 757.0" stroke="#2B1B14" stroke-width="1.5" fill="none" opacity="0.25"/>
  <rect x="0" y="774" width="800" height="42" fill="#6B4A34" opacity="0.8"/>
  <path d="M0 795.0 Q 400.0 803.0 800 795.0" stroke="#2B1B14" stroke-width="1.5" fill="none" opacity="0.25"/>
  <rect width="800" height="800" filter="url(#grain)"/>
</svg>