<svg xmlns="http://www.w3.org/2000/svg" viewBox="0 0 800 800" width="800" height="800" preserveAspectRatio="xMidYMid slice">
  <defs>
    <linearGradient id="bg" x1="0" y1="0" x2="0.15" y2="1">
      <stop offset="0" stop-color="#3a2418"/>
      <stop offset="1" stop-color="#2B1B14"/>
    </linearGradient>
    <radialGradient id="glow" cx="0.78" cy="0.12" r="0.65">
      <stop offset="0" stop-color="#F7F3EC" stop-opacity="0.3"/>
      <stop offset="1" stop-color="#F7F3EC" stop-opacity="0"/>
    </radialGradient>
    <radialGradient id="shadow" cx="0.5" cy="0.5" r="0.5">
      <stop offset="0" stop-color="#000000" stop-opacity="0.28"/>
      <stop offset="1" stop-color="#000000" stop-opacity="0"/>
    </radialGradient>
    <linearGradient id="wood" x1="0" y1="0" x2="1" y2="0">
      <stop offset="0" stop-color="#4A3023"/>
      <stop offset="1" stop-color="#2B1B14"/>
    </linearGradient>
    <filter id="grain" x="0" y="0" width="100%" height="100%">
      <feTurbulence type="fractalNoise" baseFrequency="0.85" numOctaves="2" seed="63" stitchTiles="stitch" result="noise"/>
      <feColorMatrix in="noise" type="matrix" values="0 0 0 0 0  0 0 0 0 0  0 0 0 0 0  0 0 0 0.05 0"/>
    </filter>
  </defs>
  <rect width="800" height="800" fill="url(#bg)"/>
  <rect width="800" height="800" fill="url(#glow)"/>
  <circle cx="370" cy="299" r="8" fill="#2B1B14" opacity="0.08"/>
  <circle cx="5" cy="402" r="20" fill="#2B1B14" opacity="0.03"/>
  <circle cx="443" cy="493" r="7" fill="#2B1B14" opacity="0.05"/>
  <circle cx="563" cy="362" r="18" fill="#2B1B14" opacity="0.04"/>
  <circle cx="190" cy="89" r="14" fill="#2B1B14" opacity="0.09"/>
  <circle cx="472" cy="619" r="12" fill="#2B1B14" opacity="0.07"/>
  <circle cx="81" cy="233" r="17" fill="#2B1B14" opacity="0.07"/>
  <circle cx="337" cy="70" r="10" fill="#2B1B14" opacity="0.04"/>
  <circle cx="225" cy="648" r="9" fill="#2B1B14" opacity="0.08"/>
  <circle cx="703" cy="44" r="12" fill="#2B1B14" opacity="0.06"/>
  <circle cx="19" cy="340" r="21" fill="#2B1B14" opacity="0.04"/>
  <circle cx="477" cy="97" r="15" fill="#2B1B14" opacity="0.08"/>
  <circle cx="162" cy="7" r="7" fill="#2B1B14" opacity="0.06"/>
  <circle cx="14" cy="68" r="14" fill="#2B1B14" opacity="0.09"/>
  <circle cx="336" cy="319" r="16" fill="#2B1B14" opacity="0.04"/>
  <circle cx="464" cy="138" r="16" fill="#2B1B14" opacity="0.09"/>
  <circle cx="43" cy="444" r="16" fill="#2B1B14" opacity="0.04"/>
  <circle cx="215" cy="796" r="22" fill="#2B1B14" opacity="0.04"/>
  <circle cx="564" cy="761" r="10" fill="#2B1B14" opacity="0.07"/>
  <circle cx="34" cy="293" r="17" fill="#2B1B14" opacity="0.07"/>
  <circle cx="620" cy="69" r="12" fill="#2B1B14" opacity="0.08"/>
  <circle cx="467" cy="361" r="12" fill="#2B1B14" opacity="0.09"/>
  <circle cx="460" cy="15" r="19" fill="#2B1B14" opacity="0.05"/>
  <circle cx="347" cy="171" r="13" fill="#2B1B14" opacity="0.05"/>
  <circle cx="71" cy="504" r="8" fill="#2B1B14" opacity="0.08"/>
  <circle cx="20" cy="625" r="19" fill="#2B1B14" opacity="0.06"/>
  <circle cx="568" cy="199" r="18" fill="#2B1B14" opacity="0.06"/>
  <circle cx="185" cy="771" r="12" fill="#2B1B14" opacity="0.05"/>
  <circle cx="688" cy="295" r="17" fill="#2B1B14" opacity="0.04"/>
  <circle cx="675" cy="207" r="7" fill="#2B1B14" opacity="0.09"/>
  <circle cx="138" cy="757" r="22" fill="#2B1B14" opacity="0.07"/>
  <circle cx="9" cy="49" r="9" fill="#2B1B14" opacity="0.05"/>
  <circle cx="489" cy="773" r="12" fill="#2B1B14" opacity="0.04"/>
  <circle cx="450" cy="110" r="7" fill="#2B1B14" opacity="0.06"/>
  <circle cx="557" cy="52" r="13" fill="#2B1B14" opacity="0.07"/>
  <circle cx="611" cy="306" r="20" fill="#2B1B14" opacity="0.04"/>
  <circle cx="572" cy="617" r="20" fill="#2B1B14" opacity="0.06"/>
  <circle cx="79" cy="39" r="14" fill="#2B1B14" opacity="0.04"/>
  <circle cx="504" cy="67" r="18" fill="#2B1B14" opacity="0.04"/>
  <circle cx="10" cy="141" r="13" fill="#2B1B14" opacity="0.06"/>
  <circle cx="311" cy="138" r="14" fill="#2B1B14" opacity="0.09"/>
  <circle cx="428" cy="753" r="6" fill="#2B1B14" opacity="0.09"/>
  <circle cx="711" cy="435" r="14" fill="#2B1B14" opacity="0.06"/>
  <circle cx="728" cy="52" r="16" fill="#2B1B14" opacity="0.06"/>
  <circle cx="240" cy="580" r="18" fill="#2B1B14" opacity="0.04"/>
  <circle cx="560" cy="363" r="14" fill="#2B1B14" opacity="0.07"/>
  <circle cx="42" cy="482" r="12" fill="#2B1B14" opacity="0.08"/>
  <circle cx="185" cy="658" r="18" fill="#2B1B14" opacity="0.07"/>
  <circle cx="701" cy="29" r="16" fill="#2B1B14" opacity="0.07"/>
  <circle cx="542" cy="325" r="7" fill="#2B1B14" opacity="0.04"/>
  <circle cx="486" cy="145" r="7" fill="#2B1B14" opacity="0.05"/>
  <circle cx="376" cy="428" r="6" fill="#2B1B14" opacity="0.08"/>
  <circle cx="267" cy="626" r="6" fill="#2B1B14" opacity="0.09"/>
  <circle cx="472" cy="781" r="22" fill="#2B1B14" opacity="0.08"/>
  <circle cx="85" cy="279" r="10" fill="#2B1B14" opacity="0.08"/>
  <circle cx="154" cy="177" r="8" fill="#2B1B14" opacity="0.04"/>
  <circle cx="751" cy="781" r="12" fill="#2B1B14" opacity="0.07"/>
  <circle cx="374" cy="418" r="12" fill="#2B1B14" opacity="0.07"/>
  <circle cx="189" cy="205" r="14" fill="#2B1B14" opacity="0.04"/>
  <circle cx="351" cy="755" r="6" fill="#2B1B14" opacity="0.04"/>
  <ellipse cx="240.0" cy="200.0" rx="220" ry="140" fill="#F7F3EC" opacity="0.10"/>
  <rect width="800" height="800" filter="url(#grain)"/>
</svg>