<svg xmlns="http://www.w3.org/2000/svg" viewBox="0 0 800 800" width="800" height="800" preserveAspectRatio="xMidYMid slice">
  <defs>
    <linearGradient id="bg" x1="0" y1="0" x2="0.15" y2="1">
      <stop offset="0" stop-color="#d8c8a8"/>
      <stop offset="1" stop-color="#E8DED0"/>
    </linearGradient>
    <radialGradient id="glow" cx="0.78" cy="0.12" r="0.65">
      <stop offset="0" stop-color="#F7F3EC" stop-opacity="0.35"/>
      <stop offset="1" stop-color="#F7F3EC" stop-opacity="0"/>
    </radialGradient>
    <radialGradient id="shadow" cx="0.5" cy="0.5" r="0.5">
      <stop offset="0" stop-color="#000000" stop-opacity="0.28"/>
      <stop offset="1" stop-color="#000000" stop-opacity="0"/>
    </radialGradient>
    <linearGradient id="wood" x1="0" y1="0" x2="1" y2="0">
      <stop offset="0" stop-color="#4A3023"/>
      <stop offset="1" stop-color="#2B1B14"/>
    </linearGradient>
    <filter id="grain" x="0" y="0" width="100%" height="100%">
      <feTurbulence type="fractalNoise" baseFrequency="0.85" numOctaves="2" seed="71" stitchTiles="stitch" result="noise"/>
      <feColorMatrix in="noise" type="matrix" values="0 0 0 0 0  0 0 0 0 0  0 0 0 0 0  0 0 0 0.05 0"/>
    </filter>
  </defs>
  <rect width="800" height="800" fill="url(#bg)"/>
  <rect width="800" height="800" fill="url(#glow)"/>
  <line x1="-800" y1="800" x2="0" y2="0" stroke="#4A3023" stroke-width="3" opacity="0.14"/>
  <line x1="-782" y1="800" x2="18" y2="0" stroke="#4A3023" stroke-width="3" opacity="0.14"/>
  <line x1="-764" y1="800" x2="36" y2="0" stroke="#4A3023" stroke-width="3" opacity="0.14"/>
  <line x1="-746" y1="800" x2="54" y2="0" stroke="#4A3023" stroke-width="3" opacity="0.14"/>
  <line x1="-728" y1="800" x2="72" y2="0" stroke="#4A3023" stroke-width="3" opacity="0.14"/>
  <line x1="-710" y1="800" x2="90" y2="0" stroke="#4A3023" stroke-width="3" opacity="0.14"/>
  <line x1="-692" y1="800" x2="108" y2="0" stroke="#4A3023" stroke-width="3" opacity="0.14"/>
  <line x1="-674" y1="800" x2="126" y2="0" stroke="#4A3023" stroke-width="3" opacity="0.14"/>
  <line x1="-656" y1="800" x2="144" y2="0" stroke="#4A3023" stroke-width="3" opacity="0.14"/>
  <line x1="-638" y1="800" x2="162" y2="0" stroke="#4A3023" stroke-width="3" opacity="0.14"/>
  <line x1="-620" y1="800" x2="180" y2="0" stroke="#4A3023" stroke-width="3" opacity="0.14"/>
  <line x1="-602" y1="800" x2="198" y2="0" stroke="#4A3023" stroke-width="3" opacity="0.14"/>
  <line x1="-584" y1="800" x2="216" y2="0" stroke="#4A3023" stroke-width="3" opacity="0.14"/>
  <line x1="-566" y1="800" x2="234" y2="0" stroke="#4A3023" stroke-width="3" opacity="0.14"/>
  <line x1="-548" y1="800" x2="252" y2="0" stroke="#4A3023" stroke-width="3" opacity="0.14"/>
  <line x1="-530" y1="800" x2="270" y2="0" stroke="#4A3023" stroke-width="3" opacity="0.14"/>
  <line x1="-512" y1="800" x2="288" y2="0" stroke="#4A3023" stroke-width="3" opacity="0.14"/>
  <line x1="-494" y1="800" x2="306" y2="0" stroke="#4A3023" stroke-width="3" opacity="0.14"/>
  <line x1="-476" y1="800" x2="324" y2="0" stroke="#4A3023" stroke-width="3" opacity="0.14"/>
  <line x1="-458" y1="800" x2="342" y2="0" stroke="#4A3023" stroke-width="3" opacity="0.14"/>
  <line x1="-440" y1="800" x2="360" y2="0" stroke="#4A3023" stroke-width="3" opacity="0.14"/>
  <line x1="-422" y1="800" x2="378" y2="0" stroke="#4A3023" stroke-width="3" opacity="0.14"/>
  <line x1="-404" y1="800" x2="396" y2="0" stroke="#4A3023" stroke-width="3" opacity="0.14"/>
  <line x1="-386" y1="800" x2="414" y2="0" stroke="#4A3023" stroke-width="3" opacity="0.14"/>
  <line x1="-368" y1="800" x2="432" y2="0" stroke="#4A3023" stroke-width="3" opacity="0.14"/>
  <line x1="-350" y1="800" x2="450" y2="0" stroke="#4A3023" stroke-width="3" opacity="0.14"/>
  <line x1="-332" y1="800" x2="468" y2="0" stroke="#4A3023" stroke-width="3" opacity="0.14"/>
  <line x1="-314" y1="800" x2="486" y2="0" stroke="#4A3023" stroke-width="3" opacity="0.14"/>
  <line x1="-296" y1="800" x2="504" y2="0" stroke="#4A3023" stroke-width="3" opacity="0.14"/>
  <line x1="-278" y1="800" x2="522" y2="0" stroke="#4A3023" stroke-width="3" opacity="0.14"/>
  <line x1="-260" y1="800" x2="540" y2="0" stroke="#4A3023" stroke-width="3" opacity="0.14"/>
  <line x1="-242" y1="800" x2="558" y2="0" stroke="#4A3023" stroke-width="3" opacity="0.14"/>
  <line x1="-224" y1="800" x2="576" y2="0" stroke="#4A3023" stroke-width="3" opacity="0.14"/>
  <line x1="-206" y1="800" x2="594" y2="0" stroke="#4A3023" stroke-width="3" opacity="0.14"/>
  <line x1="-188" y1="800" x2="612" y2="0" stroke="#4A3023" stroke-width="3" opacity="0.14"/>
  <line x1="-170" y1="800" x2="630" y2="0" stroke="#4A3023" stroke-width="3" opacity="0.14"/>
  <line x1="-152" y1="800" x2="648" y2="0" stroke="#4A3023" stroke-width="3" opacity="0.14"/>
  <line x1="-134" y1="800" x2="666" y2="0" stroke="#4A3023" stroke-width="3" opacity="0.14"/>
  <line x1="-116" y1="800" x2="684" y2="0" stroke="#4A3023" stroke-width="3" opacity="0.14"/>
  <line x1="-98" y1="800" x2="702" y2="0" stroke="#4A3023" stroke-width="3" opacity="0.14"/>
  <line x1="-80" y1="800" x2="720" y2="0" stroke="#4A3023" stroke-width="3" opacity="0.14"/>
  <line x1="-62" y1="800" x2="738" y2="0" stroke="#4A3023" stroke-width="3" opacity="0.14"/>
  <line x1="-44" y1="800" x2="756" y2="0" stroke="#4A3023" stroke-width="3" opacity="0.14"/>
  <line x1="-26" y1="800" x2="774" y2="0" stroke="#4A3023" stroke-width="3" opacity="0.14"/>
  <line x1="-8" y1="800" x2="792" y2="0" stroke="#4A3023" stroke-width="3" opacity="0.14"/>
  <line x1="10" y1="800" x2="810" y2="0" stroke="#4A3023" stroke-width="3" opacity="0.14"/>
  <line x1="28" y1="800" x2="828" y2="0" stroke="#4A3023" stroke-width="3" opacity="0.14"/>
  <line x1="46" y1="800" x2="846" y2="0" stroke="#4A3023" stroke-width="3" opacity="0.14"/>
  <line x1="64" y1="800" x2="864" y2="0" stroke="#4A3023" stroke-width="3" opacity="0.14"/>
  <line x1="82" y1="800" x2="882" y2="0" stroke="#4A3023" stroke-width="3" opacity="0.14"/>
  <line x1="100" y1="800" x2="900" y2="0" stroke="#4A3023" stroke-width="3" opacity="0.14"/>
  <line x1="118" y1="800" x2="918" y2="0" stroke="#4A3023" stroke-width="3" opacity="0.14"/>
  <line x1="136" y1="800" x2="936" y2="0" stroke="#4A3023" stroke-width="3" opacity="0.14"/>
  <line x1="154" y1="800" x2="954" y2="0" stroke="#4A3023" stroke-width="3" opacity="0.14"/>
  <line x1="172" y1="800" x2="972" y2="0" stroke="#4A3023" stroke-width="3" opacity="0.14"/>
  <line x1="190" y1="800" x2="990" y2="0" stroke="#4A3023" stroke-width="3" opacity="0.14"/>
  <line x1="208" y1="800" x2="1008" y2="0" stroke="#4A3023" stroke-width="3" opacity="0.14"/>
  <line x1="226" y1="800" x2="1026" y2="0" stroke="#4A3023" stroke-width="3" opacity="0.14"/>
  <line x1="244" y1="800" x2="1044" y2="0" stroke="#4A3023" stroke-width="3" opacity="0.14"/>
  <line x1="262" y1="800" x2="1062" y2="0" stroke="#4A3023" stroke-width="3" opacity="0.14"/>
  <line x1="280" y1="800" x2="1080" y2="0" stroke="#4A3023" stroke-width="3" opacity="0.14"/>
  <line x1="298" y1="800" x2="1098" y2="0" stroke="#4A3023" stroke-width="3" opacity="0.14"/>
  <line x1="316" y1="800" x2="1116" y2="0" stroke="#4A3023" stroke-width="3" opacity="0.14"/>
  <line x1="334" y1="800" x2="1134" y2="0" stroke="#4A3023" stroke-width="3" opacity="0.14"/>
  <line x1="352" y1="800" x2="1152" y2="0" stroke="#4A3023" stroke-width="3" opacity="0.14"/>
  <line x1="370" y1="800" x2="1170" y2="0" stroke="#4A3023" stroke-width="3" opacity="0.14"/>
  <line x1="388" y1="800" x2="1188" y2="0" stroke="#4A3023" stroke-width="3" opacity="0.14"/>
  <line x1="406" y1="800" x2="1206" y2="0" stroke="#4A3023" stroke-width="3" opacity="0.14"/>
  <line x1="424" y1="800" x2="1224" y2="0" stroke="#4A3023" stroke-width="3" opacity="0.14"/>
  <line x1="442" y1="800" x2="1242" y2="0" stroke="#4A3023" stroke-width="3" opacity="0.14"/>
  <line x1="460" y1="800" x2="1260" y2="0" stroke="#4A3023" stroke-width="3" opacity="0.14"/>
  <line x1="478" y1="800" x2="1278" y2="0" stroke="#4A3023" stroke-width="3" opacity="0.14"/>
  <line x1="496" y1="800" x2="1296" y2="0" stroke="#4A3023" stroke-width="3" opacity="0.14"/>
  <line x1="514" y1="800" x2="1314" y2="0" stroke="#4A3023" stroke-width="3" opacity="0.14"/>
  <line x1="532" y1="800" x2="1332" y2="0" stroke="#4A3023" stroke-width="3" opacity="0.14"/>
  <line x1="550" y1="800" x2="1350" y2="0" stroke="#4A3023" stroke-width="3" opacity="0.14"/>
  <line x1="568" y1="800" x2="1368" y2="0" stroke="#4A3023" stroke-width="3" opacity="0.14"/>
  <line x1="586" y1="800" x2="1386" y2="0" stroke="#4A3023" stroke-width="3" opacity="0.14"/>
  <line x1="604" y1="800" x2="1404" y2="0" stroke="#4A3023" stroke-width="3" opacity="0.14"/>
  <line x1="622" y1="800" x2="1422" y2="0" stroke="#4A3023" stroke-width="3" opacity="0.14"/>
  <line x1="640" y1="800" x2="1440" y2="0" stroke="#4A3023" stroke-width="3" opacity="0.14"/>
  <line x1="658" y1="800" x2="1458" y2="0" stroke="#4A3023" stroke-width="3" opacity="0.14"/>
  <line x1="676" y1="800" x2="1476" y2="0" stroke="#4A3023" stroke-width="3" opacity="0.14"/>
  <line x1="694" y1="800" x2="1494" y2="0" stroke="#4A3023" stroke-width="3" opacity="0.14"/>
  <line x1="712" y1="800" x2="1512" y2="0" stroke="#4A3023" stroke-width="3" opacity="0.14"/>
  <line x1="730" y1="800" x2="1530" y2="0" stroke="#4A3023" stroke-width="3" opacity="0.14"/>
  <line x1="748" y1="800" x2="1548" y2="0" stroke="#4A3023" stroke-width="3" opacity="0.14"/>
  <line x1="766" y1="800" x2="1566" y2="0" stroke="#4A3023" stroke-width="3" opacity="0.14"/>
  <line x1="784" y1="800" x2="1584" y2="0" stroke="#4A3023" stroke-width="3" opacity="0.14"/>
  <rect width="800" height="800" filter="url(#grain)"/>
</svg>